{
    "asset": {
        "copyright": "2019 (c) Adobe Inc.",
        "generator": "Adobe Dimension - 0897bb3786688dd8ac0e16e7ca439aa83b5dca11",
        "version": "2.0"
    },
    "accessors": [
        {
            "bufferView": 0,
            "componentType": 5126,
            "count": 8899,
            "type": "VEC3",
            "max": [
                0.0008923800196498632,
                0.006848819553852081,
                0.0008927799644879997
            ],
            "min": [
                -0.000892059993930161,
                0.005841679871082306,
                -0.0008925399743020535
            ]
        },
        {
            "bufferView": 1,
            "componentType": 5126,
            "count": 8899,
            "type": "VEC3"
        },
        {
            "bufferView": 2,
            "componentType": 5126,
            "count": 8899,
            "type": "VEC2"
        },
        {
            "bufferView": 3,
            "componentType": 5125,
            "count": 39696,
            "type": "SCALAR",
            "max": [
                8898.0
            ],
            "min": [
                0.0
            ]
        },
        {
            "bufferView": 4,
            "componentType": 5126,
            "count": 27219,
            "type": "VEC3",
            "max": [
                0.0019330499926581979,
                0.006614400073885918,
                0.0019279399421066046
            ],
            "min": [
                -0.001926710014231503,
                -0.006797989830374718,
                -0.0019279399421066046
            ]
        },
        {
            "bufferView": 5,
            "componentType": 5126,
            "count": 27219,
            "type": "VEC3"
        },
        {
            "bufferView": 6,
            "componentType": 5126,
            "count": 27219,
            "type": "VEC2"
        },
        {
            "bufferView": 7,
            "componentType": 5125,
            "count": 768,
            "type": "SCALAR",
            "max": [
                26844.0
            ],
            "min": [
                0.0
            ]
        },
        {
            "bufferView": 8,
            "componentType": 5125,
            "count": 3072,
            "type": "SCALAR",
            "max": [
                27151.0
            ],
            "min": [
                83.0
            ]
        },
        {
            "bufferView": 9,
            "componentType": 5125,
            "count": 57216,
            "type": "SCALAR",
            "max": [
                27216.0
            ],
            "min": [
                2.0
            ]
        },
        {
            "bufferView": 10,
            "componentType": 5125,
            "count": 93600,
            "type": "SCALAR",
            "max": [
                27218.0
            ],
            "min": [
                1.0
            ]
        }
    ],
    "bufferViews": [
        {
            "buffer": 0,
            "byteOffset": 0,
            "byteLength": 106788,
            "target": 34962
        },
        {
            "buffer": 0,
            "byteOffset": 106788,
            "byteLength": 106788,
            "target": 34962
        },
        {
            "buffer": 0,
            "byteOffset": 213576,
            "byteLength": 71192,
            "target": 34962
        },
        {
            "buffer": 0,
            "byteOffset": 284768,
            "byteLength": 158784,
            "target": 34963
        },
        {
            "buffer": 0,
            "byteOffset": 443552,
            "byteLength": 326628,
            "target": 34962
        },
        {
            "buffer": 0,
            "byteOffset": 770180,
            "byteLength": 326628,
            "target": 34962
        },
        {
            "buffer": 0,
            "byteOffset": 1096808,
            "byteLength": 217752,
            "target": 34962
        },
        {
            "buffer": 0,
            "byteOffset": 1314560,
            "byteLength": 3072,
            "target": 34963
        },
        {
            "buffer": 0,
            "byteOffset": 1317632,
            "byteLength": 12288,
            "target": 34963
        },
        {
            "buffer": 0,
            "byteOffset": 1329920,
            "byteLength": 228864,
            "target": 34963
        },
        {
            "buffer": 0,
            "byteOffset": 1558784,
            "byteLength": 374400,
            "target": 34963
        }
    ],
    "buffers": [
        {
            "byteLength": 1933184,
            "uri": "tyt_binary.bin"
        }
    ],
    "cameras": [
        {
            "perspective": {
                "znear": 0.000010000000656873454,
                "yfov": 0.6024156808853149,
                "zfar": 2.0,
                "aspectRatio": 1.3333333730697632
            },
            "type": "perspective",
            "name": "render_camera"
        }
    ],
    "images": [
        {
            "name": "Frame 4",
            "uri": "tyt_images\\Frame 4.jpg",
            "mimeType": "image/jpeg"
        }
    ],
    "materials": [
        {
            "pbrMetallicRoughness": {
                "baseColorFactor": [
                    0.8713672161102295,
                    0.0,
                    0.0,
                    1.0
                ],
                "metallicFactor": 0.0,
                "roughnessFactor": 0.028999999165534974
            },
            "name": "Plastic"
        },
        {
            "pbrMetallicRoughness": {
                "baseColorTexture": {
                    "index": 0,
                    "extensions": {
                        "KHR_texture_transform": {
                            "offset": [
                                0,
                                -2.200000047683716
                            ],
                            "rotation": 0,
                            "scale": [
                                1.2000000476837159,
                                3.200000047683716
                            ]
                        }
                    }
                },
                "metallicFactor": 0.0,
                "roughnessFactor": 0.6000000238418579
            },
            "name": "Label"
        },
        {
            "pbrMetallicRoughness": {
                "baseColorFactor": [
                    1.0,
                    0.0,
                    0.0,
                    1.0
                ],
                "metallicFactor": 0.0,
                "roughnessFactor": 0.028999999165534974
            },
            "name": "Plastic 2"
        },
        {
            "pbrMetallicRoughness": {
                "baseColorFactor": [
                    0.007499031722545624,
                    0.10224174708127976,
                    0.5332764983177185,
                    0.25
                ],
                "metallicFactor": 0.0,
                "roughnessFactor": 0.0
            },
            "alphaMode": "BLEND",
            "name": "Water",
            "doubleSided": true
        },
        {
            "pbrMetallicRoughness": {
                "baseColorFactor": [
                    0.1094617173075676,
                    0.6375969648361206,
                    0.007499031722545624,
                    0.25
                ],
                "metallicFactor": 0.0,
                "roughnessFactor": 0.0
            },
            "alphaMode": "BLEND",
            "name": "Glass",
            "doubleSided": true
        }
    ],
    "meshes": [
        {
            "name": "BottleCap_Cylinder.001",
            "primitives": [
                {
                    "attributes": {
                        "NORMAL": 1,
                        "POSITION": 0,
                        "TEXCOORD_0": 2
                    },
                    "indices": 3,
                    "material": 0
                }
            ]
        },
        {
            "name": "Bottle_Circle.001",
            "primitives": [
                {
                    "attributes": {
                        "NORMAL": 5,
                        "POSITION": 4,
                        "TEXCOORD_0": 6
                    },
                    "indices": 7,
                    "material": 1
                },
                {
                    "attributes": {
                        "POSITION": 4,
                        "NORMAL": 5,
                        "TEXCOORD_0": 6
                    },
                    "indices": 8,
                    "material": 2
                },
                {
                    "attributes": {
                        "NORMAL": 5,
                        "POSITION": 4,
                        "TEXCOORD_0": 6
                    },
                    "indices": 9,
                    "material": 3
                },
                {
                    "attributes": {
                        "POSITION": 4,
                        "NORMAL": 5,
                        "TEXCOORD_0": 6
                    },
                    "indices": 10,
                    "material": 4
                }
            ]
        }
    ],
    "nodes": [
        {
            "translation": [
                0.5291893482208252,
                0.2946053445339203,
                0.5216800570487976
            ],
            "rotation": [
                -0.12059047073125839,
                0.379409521818161,
                0.04995020851492882,
                0.9159756302833557
            ],
            "scale": [
                1.0,
                1.0,
                0.9999999403953552
            ],
            "camera": 0,
            "name": "render_camera_n3d"
        },
        {
            "children": [
                2,
                3
            ],
            "translation": [
                -0.0000031685829071648188,
                0.006797989830374718,
                0.0
            ],
            "name": "Plastic Water Bottle Full 2"
        },
        {
            "mesh": 0,
            "name": "BottleCap_Cylinder.001"
        },
        {
            "mesh": 1,
            "name": "Bottle_Circle.001"
        }
    ],
    "samplers": [
        {}
    ],
    "scenes": [
        {
            "nodes": [
                0,
                1
            ],
            "name": "scene"
        }
    ],
    "textures": [
        {
            "name": "texture23464",
            "sampler": 0,
            "source": 0
        }
    ],
    "scene": 0,
    "extensionsUsed": [
        "KHR_texture_transform"
    ],
    "extensionsRequired": [
        "KHR_texture_transform"
    ]
}